HIERARCHY
ROOT Hips
{
  OFFSET 0.619022 32.6945 21.6164
  CHANNELS 6 Xposition Yposition Zposition Zrotation Xrotation Yrotation
  JOINT LeftHip
  {
    OFFSET 3.43 0 0
    CHANNELS 6 Xposition Yposition Zposition Zrotation Xrotation Yrotation
    JOINT LeftKnee
    {
      OFFSET 0 -18.47 0
      CHANNELS 6 Xposition Yposition Zposition Zrotation Xrotation Yrotation
      JOINT LeftAnkle
      {
        OFFSET 0 -17.95 0
        CHANNELS 6 Xposition Yposition Zposition Zrotation Xrotation Yrotation
        End Site
        {
          OFFSET 0 -3.12 0
        }
      }
    }
  }
  JOINT RightHip
  {
    OFFSET -3.43 0 0
    CHANNELS 6 Xposition Yposition Zposition Zrotation Xrotation Yrotation
    JOINT RightKnee
    {
      OFFSET 0 -18.47 0
      CHANNELS 6 Xposition Yposition Zposition Zrotation Xrotation Yrotation
      JOINT RightAnkle
      {
        OFFSET 0 -17.95 0
        CHANNELS 6 Xposition Yposition Zposition Zrotation Xrotation Yrotation
        End Site
        {
          OFFSET 0 -3.12 0
        }
      }
    }
  }
  JOINT Chest
  {
    OFFSET 0 4.57 0
    CHANNELS 6 Xposition Yposition Zposition Zrotation Xrotation Yrotation
    JOINT CS_BVH
    {
      OFFSET 0 6.57 0
      CHANNELS 6 Xposition Yposition Zposition Zrotation Xrotation Yrotation
      JOINT LeftCollar
      {
        OFFSET 1.06 4.19 1.76
        CHANNELS 6 Xposition Yposition Zposition Zrotation Xrotation Yrotation
        JOINT LeftShoulder
        {
          OFFSET 5.81 0 0
          CHANNELS 6 Xposition Yposition Zposition Zrotation Xrotation Yrotation
          JOINT LeftElbow
          {
            OFFSET 0 -12.08 0
            CHANNELS 6 Xposition Yposition Zposition Zrotation Xrotation Yrotation
            JOINT LeftWrist
            {
              OFFSET 0 -9.82 0
              CHANNELS 6 Xposition Yposition Zposition Zrotation Xrotation Yrotation
              End Site
              {
                OFFSET 0 -7.37 0
              }
            }
          }
        }
      }
      JOINT RightCollar
      {
        OFFSET -1.06 4.19 1.76
        CHANNELS 6 Xposition Yposition Zposition Zrotation Xrotation Yrotation
        JOINT RightShoulder
        {
          OFFSET -6.06 0 0
          CHANNELS 6 Xposition Yposition Zposition Zrotation Xrotation Yrotation
          JOINT RightElbow
          {
            OFFSET 0 -11.08 0
            CHANNELS 6 Xposition Yposition Zposition Zrotation Xrotation Yrotation
            JOINT RightWrist
            {
              OFFSET 0 -9.82 0
              CHANNELS 6 Xposition Yposition Zposition Zrotation Xrotation Yrotation
              End Site
              {
                OFFSET 0 -7.14001 0
              }
            }
          }
        }
      }
      JOINT Neck
      {
        OFFSET 0 4.05 0
        CHANNELS 6 Xposition Yposition Zposition Zrotation Xrotation Yrotation
        JOINT Head
        {
          OFFSET 0 5.19 0
          CHANNELS 6 Xposition Yposition Zposition Zrotation Xrotation Yrotation
          End Site
          {
            OFFSET 0 4.14001 0
          }
        }
      }
    }
  }
}
MOTION
Frames:	4
Frame Time:	0.0333333
19.7155 33.1419 -4.22695 -5.13899 -3.68187 -77.7261 3.43 7.10543e-015 0 27.1828 -35.6979 21.6544 -3.55271e-015 -18.47 -1.86517e-014 -19.5469 55.7257 -8.54756 1.49214e-013 -17.95 -2.07834e-013 10.4504 -4.41632 -1.55597 -3.43 0 -8.88178e-016 -28.7121 7.81858 -8.29842 3.55271e-014 -18.47 -2.84217e-014 -1.47161 35.242 18.3293 1.52767e-013 -17.95 -3.92575e-013 -22.6117 -25.6506 -2.36188 1.42109e-014 4.57 -4.44089e-015 -5.45295 6.68402 -5.03523 -1.42109e-014 6.57 0 -6.39833 13.5623 -9.53949 1.06 4.19 1.76 13.0956 -7.1286 -15.9226 5.81 -1.42109e-014 -8.88178e-016 36.0027 -25.3306 -12.9602 -5.68434e-013 -12.08 5.48006e-013 -21.9986 0.0316402 -35.8864 -1.34506e-011 -9.82 6.88871e-012 13.6331 -4.37141 -0.420356 -1.06 4.19 1.76 -9.33324 -7.4397 14.9894 -6.06 7.10543e-015 1.06581e-014 -4.82667 -12.7343 46.617 -4.26326e-013 -11.08 6.03961e-013 -33.0227 -0.0459917 -60.9373 -5.27223e-012 -9.82 9.26548e-012 10.9224 -5.5277 -1.24832 -1.06581e-014 4.05 -4.44089e-016 14.3058 -29.9897 17.6912 -2.84217e-014 5.19 3.55271e-015 5.90435 -18.4708 16.7685 
19.6889 33.1302 -4.23977 -5.14528 -3.72274 -77.7418 3.43 7.10543e-015 0 27.1201 -35.7138 21.5368 -3.55271e-015 -18.47 -1.86517e-014 -19.4714 55.7851 -8.73325 1.49214e-013 -17.95 -2.07834e-013 10.4162 -4.43002 -1.55558 -3.43 0 -8.88178e-016 -28.7165 7.82859 -8.27053 3.55271e-014 -18.47 -2.84217e-014 -1.51438 35.3308 18.2516 1.52767e-013 -17.95 -3.92575e-013 -22.7125 -25.8134 -2.40593 1.42109e-014 4.57 -4.44089e-015 -5.38805 6.82313 -4.95472 -1.42109e-014 6.57 0 -6.25485 13.8289 -9.3919 1.06 4.19 1.76 13.0956 -7.1286 -15.9226 5.81 -1.42109e-014 -8.88178e-016 36.2226 -25.6017 -12.4646 -5.68434e-013 -12.08 5.48006e-013 -22.0832 0.0315831 -36.5696 -1.34506e-011 -9.82 6.88871e-012 13.6927 -5.47679 -0.367014 -1.06 4.19 1.76 -9.33324 -7.4397 14.9894 -6.06 7.10543e-015 1.06581e-014 -5.01247 -13.2828 46.4944 -4.26326e-013 -11.08 6.03961e-013 -32.9896 -0.159963 -60.4068 -5.27223e-012 -9.82 9.26548e-012 11.165 -6.24606 -1.21719 -1.06581e-014 4.05 -4.44089e-016 14.1231 -30.7023 17.7472 -2.84217e-014 5.19 3.55271e-015 5.91604 -18.1738 16.5781 
19.6515 33.1225 -4.25504 -4.95363 -3.73599 -77.6605 3.43 7.10543e-015 0 27.0288 -35.9384 21.4261 -3.55271e-015 -18.47 -1.86517e-014 -19.4096 55.8503 -8.66998 1.49214e-013 -17.95 -2.07834e-013 10.4859 -4.50687 -1.55165 -3.43 0 -8.88178e-016 -28.5817 7.74312 -8.17732 3.55271e-014 -18.47 -2.84217e-014 -1.63132 35.3697 17.9894 1.52767e-013 -17.95 -3.92575e-013 -22.8077 -26.0651 -2.46546 1.42109e-014 4.57 -4.44089e-015 -5.38578 6.81674 -4.91707 -1.42109e-014 6.57 0 -6.24069 13.8113 -9.3182 1.06 4.19 1.76 13.0956 -7.1286 -15.9226 5.81 -1.42109e-014 -8.88178e-016 36.464 -25.6533 -12.1613 -5.68434e-013 -12.08 5.48006e-013 -22.3617 0.0313365 -37.7059 -1.34506e-011 -9.82 6.88871e-012 13.4766 -6.66511 -0.306729 -1.06 4.19 1.76 -9.33324 -7.4397 14.9894 -6.06 7.10543e-015 1.06581e-014 -5.0756 -13.2886 46.2952 -4.26326e-013 -11.08 6.03961e-013 -32.9425 -0.265298 -60.6745 -5.27223e-012 -9.82 9.26548e-012 10.2054 -5.67553 -1.16671 -1.06581e-014 4.05 -4.44089e-016 14.2749 -30.6785 17.6605 -2.84217e-014 5.19 3.55271e-015 5.62397 -18.3801 16.6536 
19.602 33.1207 -4.2569 -4.6867 -3.90393 -77.374 3.43 7.10543e-015 0 26.7693 -36.2 21.3403 -3.55271e-015 -18.47 -1.86517e-014 -19.3614 55.7082 -8.69611 1.49214e-013 -17.95 -2.07834e-013 9.94636 -4.00188 -1.53746 -3.43 0 -8.88178e-016 -28.7235 7.81517 -8.31431 3.55271e-014 -18.47 -2.84217e-014 -1.51817 35.2888 17.7671 1.52767e-013 -17.95 -3.92575e-013 -22.8382 -26.1947 -2.49334 1.42109e-014 4.57 -4.44089e-015 -5.41652 6.74978 -4.9926 -1.42109e-014 6.57 0 -6.32282 13.6862 -9.45562 1.06 4.19 1.76 13.0956 -7.1286 -15.9226 5.81 -1.42109e-014 -8.88178e-016 36.7887 -25.4968 -11.7726 -5.68434e-013 -12.08 5.48006e-013 -22.6736 0.0312078 -38.5464 -1.34506e-011 -9.82 6.88871e-012 13.4938 -7.35695 -0.273657 -1.06 4.19 1.76 -9.33324 -7.4397 14.9894 -6.06 7.10543e-015 1.06581e-014 -4.74903 -13.8002 46.188 -4.26326e-013 -11.08 6.03961e-013 -32.7687 -0.0458899 -60.1626 -5.27223e-012 -9.82 9.26548e-012 11.4164 -5.42561 -1.30802 -1.06581e-014 4.05 -4.44089e-016 14.0045 -30.467 17.5654 -2.84217e-014 5.19 3.55271e-015 5.7149 -18.5821 16.5937 
